<?xml version="1.0" encoding="utf-8"?>
<!-- Generator: Adobe Illustrator 24.0.3, SVG Export Plug-In . SVG Version: 6.00 Build 0)  -->
<!DOCTYPE svg PUBLIC "-//W3C//DTD SVG 1.1//EN" "http://www.w3.org/Graphics/SVG/1.1/DTD/svg11.dtd" [
	<!ENTITY ns_extend "http://ns.adobe.com/Extensibility/1.0/">
	<!ENTITY ns_ai "http://ns.adobe.com/AdobeIllustrator/10.0/">
	<!ENTITY ns_graphs "http://ns.adobe.com/Graphs/1.0/">
	<!ENTITY ns_vars "http://ns.adobe.com/Variables/1.0/">
	<!ENTITY ns_imrep "http://ns.adobe.com/ImageReplacement/1.0/">
	<!ENTITY ns_sfw "http://ns.adobe.com/SaveForWeb/1.0/">
	<!ENTITY ns_custom "http://ns.adobe.com/GenericCustomNamespace/1.0/">
	<!ENTITY ns_adobe_xpath "http://ns.adobe.com/XPath/1.0/">
]>
<svg version="1.1" id="Layer_1" xmlns:x="&ns_extend;" xmlns:i="&ns_ai;" xmlns:graph="&ns_graphs;"
	 xmlns="http://www.w3.org/2000/svg" xmlns:xlink="http://www.w3.org/1999/xlink" x="0px" y="0px" viewBox="0 0 116.8 120.1"
	 style="enable-background:new 0 0 116.8 120.1;" xml:space="preserve">
<style type="text/css">
	.st0{fill:#011627;}
</style>
<metadata  id="CorelCorpID_0Corel-Layer">
	<sfw  xmlns="&ns_sfw;">
		<slices></slices>
		<sliceSourceBounds  bottomLeftOrigin="true" height="120.1" width="116.8" x="71.2" y="69.7"></sliceSourceBounds>
	</sfw>
</metadata>
<path class="st0" d="M30.9,102.1c4.8,3.1,9.9,5.2,15.1,6.6c5.3,1.4,10.9,1.9,16.4,1.6c14.5-0.9,27.3-7.5,36.3-17.6
	s14.1-23.6,13.3-38.1v-0.1l0,0c-0.9-14.5-7.5-27.2-17.5-36.1C84.4,9.4,70.9,4.3,56.4,5.1h-0.1l0,0C41.9,6,29.1,12.6,20.2,22.7
	S5.8,46.2,6.7,60.8v0.1c0.3,5,1.2,9.7,2.8,14.1c1.6,4.6,3.8,8.9,6.6,12.9c0.5,0.7,0.6,1.6,0.3,2.3l-9.3,22.6L28.6,102
	C29.3,101.6,30.3,101.7,30.9,102.1z M70.1,88.4c-7.5-0.4-17.7-7.5-25.8-16.3c-8.2-8.8-14.5-19.5-14.4-27c-0.1-1.6,0.2-3.3,0.6-5.2
	c0.5-1.8,1.1-3.7,2.1-5.6c0.3-0.7,0.7-1.4,1-2.1c0.3-0.6,0.7-1.3,1.2-2c0.3-0.5,0.7-0.8,1.2-1c2.8-1.4,5-2,7.1-1.7
	c2.2,0.3,4.1,1.6,6.1,4.1c1,1.2,1.9,2.5,2.8,4.1c0.9,1.4,1.6,3,2.4,4.7c0.8,1.4,0.9,3.1,0.3,4.9c-0.5,1.5-1.4,3.1-2.7,4.7
	c-0.4,0.5-0.9,0.7-1.4,0.8c-0.3,0.1-0.5,0.2-0.6,0.3c-0.3,0.2-0.5,0.6-0.7,1.2c0,0.1-0.1,0.2-0.1,0.2c-0.1,0.1,0.2,0.1,0.5,0.7
	c1,2.2,3.4,5.4,6.2,8.4c2.7,3,5.8,5.6,7.9,6.8c0.5,0.3,0.5,0.6,0.6,0.5s0.2-0.1,0.2-0.1c0.6-0.2,1-0.4,1.2-0.6
	c0.2-0.2,0.3-0.4,0.4-0.7c0.2-0.5,0.5-1,0.9-1.2l0,0c1.7-1.2,3.3-2,4.8-2.4c1.8-0.4,3.4-0.2,4.7,0.7c1.7,0.9,3.2,1.8,4.6,2.7
	c1.4,1,2.7,2,3.8,3.1c2.3,2.2,3.5,4.1,3.6,6.4c0.1,2.1-0.7,4.2-2.3,6.9c-0.3,0.5-0.6,0.8-1,1l0,0c-0.7,0.3-1.4,0.7-2.1,1
	c-0.7,0.3-1.4,0.6-2.1,0.9c-2,0.8-3.9,1.3-5.7,1.6C73.4,88.5,71.6,88.5,70.1,88.4z M47.9,68.7c7.4,8,16.3,14.4,22.5,14.7h0.1
	c1.1,0.1,2.4,0.1,3.9-0.2s3.1-0.7,4.8-1.3c0.6-0.3,1.2-0.5,1.8-0.8c0.4-0.2,0.8-0.3,1.2-0.6c0.9-1.5,1.2-2.6,1.2-3.4
	c-0.1-0.9-0.7-1.8-2.1-3.2c-0.9-0.9-2-1.7-3.2-2.6c-1.2-0.9-2.6-1.7-4.1-2.4l0,0c-0.1,0-0.2-0.1-0.3-0.1c-0.2-0.1-0.6-0.1-1,0
	c-0.7,0.1-1.5,0.5-2.4,1.1c-0.4,0.8-0.9,1.5-1.5,2c-0.8,0.7-1.8,1.2-3,1.6c-1.3,0.5-2.9,0.2-4.6-0.7c-2.7-1.4-6.2-4.5-9.3-7.8
	c-3.1-3.3-5.8-7.1-7.1-9.8c-0.8-1.8-1-3.5-0.3-4.8c0.5-1.2,1-2.1,1.8-2.8c0.7-0.6,1.4-1,2.2-1.4c0.7-0.9,1.1-1.7,1.3-2.4
	c0.2-0.5,0.2-0.9,0.1-1.1c-0.1-0.1-0.1-0.2-0.1-0.3c-0.7-1.6-1.4-3-2.1-4.3c-0.8-1.2-1.6-2.4-2.4-3.4c-1.2-1.5-2.2-2.2-3-2.4
	c-0.9-0.1-2,0.2-3.6,1c-0.2,0.4-0.4,0.8-0.7,1.2c-0.3,0.7-0.7,1.2-0.9,1.8c-0.8,1.7-1.4,3.3-1.7,4.8c-0.4,1.4-0.5,2.7-0.5,3.9v0.1
	C34.6,51.2,40.4,60.7,47.9,68.7z M44.8,113.3c-5.2-1.4-10.3-3.5-15.3-6.5l-25.9,13c-0.6,0.3-1.4,0.4-2.1,0.1
	c-1.2-0.5-1.8-1.9-1.3-3.1l11.2-27.4c-2.7-4.1-4.9-8.4-6.5-13c-1.7-4.8-2.7-9.9-3-15.4c0-0.1,0-0.2,0-0.3C1,44.9,6.6,30.3,16.4,19.3
	C26.2,8.4,40,1.1,55.8,0.1c0.1,0,0.2,0,0.3,0l0,0c15.8-0.9,30.5,4.7,41.4,14.5c10.9,9.7,18.2,23.6,19.2,39.4c0,0.1,0,0.2,0,0.3l0,0
	c0.9,15.8-4.7,30.4-14.5,41.4s-23.8,18.2-39.6,19.2C56.6,115.4,50.6,114.9,44.8,113.3z"/>
</svg>
